<svg width="3558" height="1313" xmlns="http://www.w3.org/2000/svg" xmlns:xlink="http://www.w3.org/1999/xlink" xml:space="preserve" overflow="hidden"><g transform="translate(-554 -585)"><g><g><g><path d="M1148.95 1241.5C1148.95 1247.36 1146.45 1252.94 1142.07 1256.83L772.785 1585.08C764.325 1592.62 751.358 1591.87 743.823 1583.41 736.288 1574.94 737.039 1561.98 745.499 1554.44 745.509 1554.44 745.518 1554.43 745.528 1554.42L1097.56 1241.5 745.528 928.582C737.053 921.062 736.279 908.097 743.798 899.623 751.317 891.149 764.282 890.374 772.757 897.893 772.766 897.902 772.776 897.91 772.785 897.918L1142.07 1226.17C1146.45 1230.06 1148.95 1235.64 1148.95 1241.5ZM1661.81 1549.23 1169.44 1549.23C1158.11 1549.23 1148.92 1558.42 1148.92 1569.75 1148.92 1581.08 1158.11 1590.27 1169.44 1590.27L1661.81 1590.27C1673.14 1590.27 1682.33 1581.08 1682.33 1569.75 1682.33 1558.42 1673.14 1549.23 1661.81 1549.23Z" stroke="#FFFFFF" stroke-width="5.12891" fill="#FFFFFF"/></g></g></g><text fill="#FFFFFF" font-family="Cascadia Code ExtraLight,Cascadia Code ExtraLight_MSFontService,sans-serif" font-weight="200" font-size="252" transform="matrix(1 0 0 1 2186.46 1326)">Lhammai</text><text fill="#FFFFFF" font-family="Cascadia Code ExtraLight,Cascadia Code ExtraLight_MSFontService,sans-serif" font-weight="200" font-size="252" transform="matrix(1 0 0 1 3221.15 1326)"> </text><text fill="#FFFFFF" font-family="Cascadia Code ExtraLight,Cascadia Code ExtraLight_MSFontService,sans-serif" font-weight="200" font-size="252" transform="matrix(1 0 0 1 3368.96 1326)">CLI</text><text fill="#FFFFFF" font-family="Cascadia Code ExtraLight,Cascadia Code ExtraLight_MSFontService,sans-serif" font-weight="200" font-size="252" transform="matrix(1 0 0 1 3812.4 1326)"> </text></g></svg>